# xmcd CD database file
#
# Track frame offsets:
#	150
#	22583
#	48181
#	82099
#	123329
#	153785
#	174160
#	196865
#	216475
#	241048
#	274815
#
# Disc length: 3834 seconds
#
# Revision: 0
# Processed by: cddbd v1.5.1PL0 Copyright (c) Steve Scherf et al.
# Submitted via: CDex 1.51
#
DISCID=810ef80b
DTITLE=Tom McClung - The Telling
DYEAR=1997
DGENRE=Jazz
TTITLE0=Hope #2
TTITLE1=Sequoia Song
TTITLE2=Nature Boy
TTITLE3=The Telling
TTITLE4=Six for Steve
TTITLE5=Dues Blues
TTITLE6=Reflections
TTITLE7=Off Minor
TTITLE8=I Should Care
TTITLE9=Benyayer
TTITLE10=Dawn Muse
EXTD=YEAR: 1997
EXTT0=
EXTT1=
EXTT2=
EXTT3=
EXTT4=
EXTT5=
EXTT6=
EXTT7=
EXTT8=
EXTT9=
EXTT10=
PLAYORDER=
